<svg xmlns="http://www.w3.org/2000/svg" width="512" height="512" viewBox="0 0 512 512">
  <!-- Ink outline (subtle dark border for definition) -->
  <rect x="20" y="20" width="472" height="472"
        rx="92" ry="92"
        fill="#2b2a26" opacity="0.18"/>
  <!-- Blue ballpoint background square -->
  <rect x="51" y="51" width="410" height="410"
        rx="78" ry="78"
        fill="#2f5aa8"/>
  <!-- GL monogram in cream -->
  <svg x="51" y="51" width="410" height="410" viewBox="0 0 410 410" xmlns="http://www.w3.org/2000/svg"><mask id="satori_om-id"><rect x="0" y="0" width="410" height="410" fill="#fff"/></mask><g  ><path fill="#f6f1e6" d="M137.7 300.8L137.7 300.8Q130.8 295.7 127.1 286.1Q123.4 276.5 123.6 268.3L123.6 268.3Q123.4 252.4 126.3 235.5Q129.3 218.6 134.1 204.0L134.1 204.0Q137.4 194.8 141.3 185.3Q145.1 175.8 149.2 167.3Q153.3 158.7 157.2 152.8L157.2 152.8Q165.1 139.2 173.4 131.0Q181.7 122.9 186.1 120.3L186.1 120.3Q193.3 116.7 203.2 114.8Q213.2 112.9 222.7 114.9L222.7 114.9Q229.4 116.7 235.9 120.0Q242.4 123.4 247.3 128.2L247.3 128.2Q250.1 130.8 251.6 133.6Q253.2 136.4 253.2 139.5L253.2 139.5Q253.2 143.3 249.6 146.9Q246.0 150.5 241.6 151.8Q237.3 153.1 235.0 150.2L235.0 150.2Q231.7 145.1 228.6 142.4Q225.5 139.8 222.2 138.5L222.2 138.5Q219.4 136.7 214.6 136.7Q209.9 136.7 204.5 138.3Q199.1 140.0 194.3 144.1L194.3 144.1Q192.5 145.6 189.5 148.5Q186.6 151.3 183.4 155.2Q180.2 159.2 177.6 163.8L177.6 163.8Q170.5 175.6 165.5 187.8Q160.5 199.9 156.6 214.2L156.6 214.2Q154.9 220.1 152.8 228.7Q150.8 237.3 149.1 245.7Q147.4 254.2 146.9 260.6L146.9 260.6Q146.2 269.5 147.4 274.7Q148.7 279.8 152.8 281.4Q156.9 283.1 164.3 281.3L164.3 281.3Q171.0 279.8 177.8 276.1Q184.6 272.4 191.0 266.6Q197.4 260.8 202.5 252.9L202.5 252.9Q207.1 244.2 210.0 237.0Q213.0 229.9 213.1 225.6Q213.2 221.4 208.6 221.7L208.6 221.7Q198.1 221.9 191.8 220.9Q185.6 219.9 183.3 215.8L183.3 215.8Q179.9 215.0 179.8 210.2Q179.7 205.3 184.6 202.2L184.6 202.2Q188.9 199.9 196.6 199.4Q204.3 198.9 212.3 199.8Q220.4 200.7 225.3 203.5L225.3 203.5Q230.9 206.3 233.1 211.8Q235.2 217.3 235.4 223.5Q235.5 229.6 234.5 235.0L234.5 235.0Q232.2 243.9 228.2 252.4Q224.2 260.8 217.6 269.5L217.6 269.5Q213.7 274.9 207.1 280.8Q200.4 286.7 193.1 291.4Q185.8 296.2 179.4 299.0L179.4 299.0Q169.2 303.6 158.1 305.6Q146.9 307.7 137.7 300.8ZM263.1 304.6L263.1 304.6Q252.9 302.1 246.6 294.0Q240.3 285.9 236.5 274.7L236.5 274.7Q236.2 271.3 236.4 265.4Q236.5 259.6 237.0 254.4Q237.5 249.3 238.0 248.6L238.0 248.6Q238.8 248.0 238.8 245.5L238.8 245.5Q238.6 244.5 239.2 242.0Q239.8 239.6 240.6 237.0L240.6 237.0Q241.9 234.0 241.9 232.0Q241.9 230.1 241.6 229.1L241.6 229.1Q241.6 229.1 242.4 227.4Q243.2 225.8 244.2 224.7L244.2 224.7Q245.7 223.2 245.6 221.7Q245.5 220.1 245.5 220.1L245.5 220.1Q245.2 219.1 246.0 217.3Q246.7 215.5 247.5 214.5L247.5 214.5Q248.0 214.0 248.9 212.3Q249.8 210.7 249.8 210.7L249.8 210.7Q249.8 209.9 251.0 206.6Q252.1 203.2 253.7 199.3Q255.2 195.3 256.6 192.0Q258.0 188.6 258.8 187.6L258.8 187.6L258.8 187.1Q259.8 184.6 261.6 181.7L261.6 181.7Q261.8 180.5 262.9 177.5Q263.9 174.6 265.2 171.8L265.2 171.8Q268.0 165.6 272.2 157.8Q276.4 150.0 281.3 142.2Q286.2 134.4 290.6 128.1Q295.1 121.8 298.5 118.8L298.5 118.8Q302.8 113.9 307.3 111.7Q311.8 109.5 315.6 113.4L315.6 113.4Q317.4 115.2 318.7 118.6Q320.0 122.1 319.8 125.0Q319.7 128.0 317.7 128.2L317.7 128.2Q315.9 129.3 312.8 134.0Q309.7 138.7 306.0 145.1Q302.3 151.5 298.7 158.3Q295.1 165.1 292.1 170.5L292.1 170.5Q288.7 177.9 285.9 183.4Q283.1 188.9 283.1 188.9L283.1 188.9Q282.8 189.7 282.6 190.2Q282.3 190.7 282.1 191.2L282.1 191.2Q278.2 199.1 275.7 205.7Q273.1 212.2 270.6 219.4L270.6 219.4Q269.0 221.2 268.8 223.0Q268.5 224.7 268.5 224.7L268.5 224.7Q268.0 224.5 267.7 225.9Q267.5 227.3 266.7 229.1L266.7 229.1Q265.4 230.1 265.2 232.3Q264.9 234.5 264.9 236.5L264.9 236.5Q263.1 241.1 261.6 247.7Q260.1 254.2 259.4 260.2Q258.8 266.2 259.0 269.5L259.0 269.5Q259.5 273.9 261.5 276.8Q263.4 279.8 267.0 281.6L267.0 281.6Q269.8 282.9 272.1 283.8Q274.4 284.6 276.2 284.6L276.2 284.6Q278.2 284.9 281.4 284.5Q284.6 284.1 290.3 283.1L290.3 283.1L290.0 283.1Q293.3 282.6 297.0 281.7Q300.8 280.8 304.1 280.0L304.1 280.0Q307.2 279.5 310.0 278.9Q312.8 278.2 314.3 277.7L314.3 277.7Q320.0 276.2 323.4 275.2Q326.9 274.2 328.2 275.2L328.2 275.2Q329.4 276.2 331.0 279.0Q332.5 281.8 331.7 284.1L331.7 284.1Q331.2 285.4 326.6 289.4Q322.0 293.4 316.1 297.3Q310.2 301.3 305.4 302.8L305.4 302.8Q300.2 305.1 291.7 306.0Q283.1 306.9 275.2 306.4Q267.2 305.9 263.1 304.6Z "/></g></svg>
</svg>